#!OML:ASF E:\emotionWalksFemale\Project 1\Capture day 1\Session 1\Female1.ASF
:FULLY-SPECIFIED
:DEGREES
2453
root 9.63046 15.3971 8.26639 -178.715 -185.059 -173.077
lowerback 1.27052 -2.10434 -1.47368
upperback -4.7338 -2.94101 -1.30775
thorax -5.60673 -1.42598 -0.351666
lowerneck -2.25299 -0.344236 -2.8902
upperneck 5.16478 -0.41633 1.49191
head 2.01379 -0.227615 0.953006
rclavicle 2.01766e-014 2.22639e-014
rhumerus -45.8871 0.673888 -83.3346
rradius 31.611
rwrist 19.9348
rhand 0.0409451 -54.0048
rfingers 7.12502
rthumb 25.6296 997.7
lclavicle 2.01766e-014 2.22639e-014
lhumerus -39.8747 5.95399 81.3058
lradius 33.3618
lwrist -17.3735
lhand -4.24 -34.6038
lfingers 7.12502
lthumb 21.5235 -5.77965
rfemur -28.0086 24.6586 5.27235
rtibia 23.8727
rfoot -20.1723 -34.6921
rtoes 8.35376
lfemur 20.6098 -14.7834 -37.2264
ltibia 6.36111e-015
lfoot -10.4255 10.1357
ltoes -13.1905
2454
root 9.59822 15.3976 8.3608 -178.532 -185.164 -173.255
lowerback 1.12417 -2.14569 -1.58721
upperback -4.85109 -2.99592 -1.23238
thorax -5.63666 -1.44572 -0.210784
lowerneck -2.51712 -0.34257 -2.89937
upperneck 5.40021 -0.414633 1.63018
head 2.13952 -0.223847 1.00096
rclavicle 7.25564e-015 -5.1684e-015
rhumerus -46.34 0.507204 -83.1659
rradius 31.7768
rwrist 20.1557
rhand 0.325245 -53.9543
rfingers 7.12502
rthumb 25.9019 997.79
lclavicle 7.25564e-015 -5.1684e-015
lhumerus -39.9394 6.00264 81.3635
lradius 33.5041
lwrist -17.2348
lhand -4.14269 -34.5774
lfingers 7.12502
lthumb 21.6169 -5.76399
rfemur -27.5885 24.5228 5.96332
rtibia 23.9092
rfoot -19.6445 -34.4681
rtoes 7.30442
lfemur 20.7357 -14.8284 -36.8497
ltibia 3.49861e-014
lfoot -9.99633 9.9165
ltoes -13.2149
2455
root 9.57265 15.3983 8.46481 -178.452 -185.326 -173.099
lowerback 0.956723 -2.19346 -1.87865
upperback -4.98587 -3.07531 -1.34766
thorax -5.6747 -1.47407 -0.167485
lowerneck -2.26505 -0.366847 -2.82491
upperneck 5.38537 -0.466441 1.79369
head 2.09113 -0.244967 1.03811
rclavicle -1.07344e-014 6.36111e-015
rhumerus -46.9194 0.366046 -83.2172
rradius 31.8103
rwrist 20.1131
rhand 0.171167 -53.9493
rfingers 7.12502
rthumb 25.7543 997.774
lclavicle -1.07344e-014 6.36111e-015
lhumerus -40.1912 5.71255 81.3877
lradius 33.5342
lwrist -16.8165
lhand -4.35149 -34.7191
lfingers 7.12502
lthumb 21.4164 -5.8828
rfemur -27.014 24.6007 6.20681
rtibia 23.9623
rfoot -19.3664 -34.0587
rtoes 7.65875
lfemur 21.0635 -14.8757 -36.9264
ltibia -2.8625e-014
lfoot -9.5757 9.79173
ltoes -15.3168
2456
root 9.54221 15.4126 8.55483 -178.178 -185.471 -173.21
lowerback 0.811706 -2.21524 -1.99414
upperback -5.17602 -3.10884 -1.34269
thorax -5.78625 -1.48346 -0.0983632
lowerneck -1.96066 -0.406178 -2.80903
upperneck 5.20598 -0.53704 1.99293
head 1.98119 -0.275724 1.09534
rclavicle -1.6201e-014 -1.19271e-015
rhumerus -47.2496 0.245355 -83.1807
rradius 31.7146
rwrist 19.9135
rhand 0.227903 -54.1585
rfingers 7.12502
rthumb 25.8086 997.572
lclavicle -1.6201e-014 -1.19271e-015
lhumerus -40.2608 5.383 81.5202
lradius 33.5276
lwrist -16.4451
lhand -4.70311 -34.6561
lfingers 7.12502
lthumb 21.0786 -5.78173
rfemur -26.9826 25.6766 6.23818
rtibia 23.937
rfoot -18.9309 -34.2519
rtoes 8.55256
lfemur 21.0832 -14.9817 -36.6008
ltibia -4.13472e-014
lfoot -9.04529 9.72783
ltoes -17.1427
2457
root 9.51086 15.43 8.66254 -177.983 -185.635 -173.222
lowerback 0.447183 -2.28453 -2.28983
upperback -5.22661 -3.19911 -1.31092
thorax -5.6128 -1.51542 0.0889284
lowerneck -1.93602 -0.276248 -2.98028
upperneck 5.16898 -0.374374 2.33499
head 1.96435 -0.189954 1.23808
rclavicle -1.799e-014 -1.31198e-014
rhumerus -47.4453 0.30291 -83.1366
rradius 31.6852
rwrist 19.6525
rhand 0.290066 -54.3432
rfingers 7.12502
rthumb 25.8682 997.396
lclavicle -1.799e-014 -1.31198e-014
lhumerus -40.2112 5.39763 81.6056
lradius 33.5775
lwrist -16.2065
lhand -4.82511 -34.3865
lfingers 7.12502
lthumb 20.9614 -5.49912
rfemur -26.9653 27.2463 6.00833
rtibia 23.898
rfoot -18.6431 -35.0975
rtoes 10.0872
lfemur 21.2581 -15.0785 -36.4181
ltibia 3.81667e-014
lfoot -8.4474 9.66061
ltoes -17.9739
